<?xml version="1.0" encoding="utf-8"?>
<!-- Generator: Adobe Illustrator 16.0.0, SVG Export Plug-In . SVG Version: 6.00 Build 0)  -->
<!DOCTYPE svg PUBLIC "-//W3C//DTD SVG 1.1//EN" "http://www.w3.org/Graphics/SVG/1.1/DTD/svg11.dtd">
<svg version="1.1" id="Layer_1" xmlns="http://www.w3.org/2000/svg" xmlns:xlink="http://www.w3.org/1999/xlink" x="0px" y="0px"
	 width="512px" height="512px" viewBox="0 0 512 512" enable-background="new 0 0 512 512" xml:space="preserve">
<path d="M192,192c106,0,192-43,192-96S298,0,192,0C85.938,0,0,43,0,96S85.938,192,192,192z M218.5,109.813
	c-5.375-1.75-17.375-3.875-35.875-6.5c-16.688-2.313-29.688-4.625-39.063-6.875s-17-5.406-22.875-9.469
	c-5.813-4.094-8.75-8.844-8.75-14.219c0-7.094,5.25-13.5,15.688-19.156s26.875-9.125,49.313-10.406V32h30.313v11.188
	c33.875,1.625,55.813,9.313,65.75,23l-41.75,6.875c-8.125-9.406-20.688-14.125-37.75-14.125c-8.563,0-15.438,1.063-20.625,3.156
	s-7.75,4.656-7.75,7.656c0,3.031,2.5,5.375,7.5,7c4.938,1.625,15.688,3.656,32.063,6.063c18,2.625,32.125,5.125,42.313,7.438
	c10.25,2.344,18.438,5.594,24.563,9.688c6.063,4.125,9.125,8.938,9.125,14.438c0,8.5-6.313,15.531-18.875,21.188
	c-12.625,5.625-30.813,8.969-54.563,9.969V160h-30.313v-14.406c-39.688-1.625-64.188-10.844-73.688-27.656l46.875-4.875
	c4.375,10.563,18.75,15.844,43.125,15.844c11.438,0,19.875-1.125,25.25-3.406c5.375-2.25,8.063-5,8.063-8.188
	C226.563,114,223.875,111.5,218.5,109.813z M0,160c0-5.688,1.125-11.219,3.063-16.625C35.625,181.813,107,208,192,208
	c24.375,0,47.438-2.375,69-6.344c-22.5,13.656-41.688,32.094-56.125,54.031C200.563,255.813,196.313,256,192,256
	C85.938,256,0,213,0,160z M384,160c0,6.313-1.313,12.5-3.688,18.5c-9.25-1.5-18.625-2.5-28.313-2.5c-5.25,0-10.375,0.344-15.5,0.781
	c18.313-9.531,33.625-20.719,44.438-33.406C382.813,148.781,384,154.313,384,160z M264.938,504.781
	C242.438,509.406,217.813,512,192,512C85.938,512,0,469,0,416c0-5.688,1.125-11.219,3.063-16.625C35.625,437.813,107,464,192,464
	c8.063,0,15.875-0.438,23.625-0.906C229.313,479.844,246.063,493.969,264.938,504.781z M0,352c0-5.688,1.125-11.219,3.063-16.625
	c31.375,37,98.875,62.406,179.688,64.281c4.813,17.219,12.188,33.375,21.75,48.031c-4.188,0.125-8.313,0.313-12.5,0.313
	C85.938,448,0,405,0,352z M0,288c0-5.688,1.125-11.219,3.063-16.625c30.625,36.094,95.625,61.094,173.75,64.031
	c-0.5,5.469-0.813,11-0.813,16.594c0,10.813,1.125,21.375,3,31.688C79.063,380.313,0,338.813,0,288z M0,224
	c0-5.688,1.125-11.219,3.063-16.625C35.625,245.813,107,272,192,272c1.188,0,2.313-0.125,3.5-0.125
	c-7.625,14.844-13.25,30.875-16.375,47.813C79.125,316.344,0,274.813,0,224z M352,192c-88.438,0-160,71.688-160,160
	c0,88.406,71.563,160,160,160c88.375,0,160-71.594,160-160C512,263.688,440.375,192,352,192z M407.875,431.094
	c-10.063,11.313-24.688,17.938-43.688,19.938v28.938h-24.25v-28.781c-31.688-3.25-51.313-21.719-58.875-55.344l37.438-9.75
	c3.5,21.125,15,31.688,34.563,31.688c9.063,0,15.813-2.25,20.125-6.781s6.5-9.969,6.5-16.375c0-6.625-2.188-11.656-6.5-15.031
	c-4.313-3.438-13.875-7.781-28.688-13.031c-13.313-4.594-23.75-9.156-31.25-13.719c-7.5-4.5-13.563-10.813-18.313-18.938
	c-4.625-8.156-7-17.656-7-28.438c0-14.188,4.188-26.969,12.563-38.313s21.5-18.25,39.438-20.781V224h24.25v22.375
	c27.125,3.25,44.688,18.563,52.625,45.969l-33.375,13.75c-6.5-18.844-16.563-28.219-30.25-28.219
	c-6.813,0-12.313,2.094-16.438,6.313c-4.188,4.219-6.25,9.281-6.25,15.25c0,6.125,2,10.781,6,14.063
	c4,3.25,12.563,7.281,25.625,12.094c14.438,5.25,25.75,10.219,33.875,14.906c8.188,4.656,14.75,11.156,19.688,19.375
	C420.5,368.125,423,377.75,423,388.75C423,405.688,417.938,419.781,407.875,431.094z"/>
</svg>
